<svg version="1.0" xmlns="http://www.w3.org/2000/svg"
 width="1.4em" height="1.4em" viewBox="0 0 200.000000 200.000000"
 preserveAspectRatio="xMidYMid meet">

<g transform="translate(0.000000,200.000000) scale(0.100000,-0.100000)"
fill="#4C6696" stroke="none">
<path d="M192 1807 l-22 -23 0 -785 0 -786 23 -21 23 -22 785 0 786 0 21 23
c22 23 22 26 22 433 l0 411 -23 21 c-32 30 -87 29 -115 -1 -21 -23 -22 -30
-24 -373 l-3 -349 -665 0 -665 0 0 665 0 665 349 3 c343 2 350 3 373 24 31 29
31 87 0 116 -23 22 -26 22 -433 22 l-411 0 -21 -23z"/>
<path d="M1275 1805 c-16 -15 -25 -36 -25 -55 0 -19 9 -40 25 -55 23 -24 30
-25 145 -25 66 0 120 -3 120 -8 0 -4 -139 -147 -310 -317 -291 -291 -310 -312
-310 -346 0 -46 33 -79 81 -79 32 0 58 23 344 310 170 171 313 310 317 310 5
0 8 -54 8 -120 0 -115 1 -122 25 -145 15 -16 36 -25 55 -25 19 0 40 9 55 25
l25 24 0 244 c0 242 0 244 -23 265 -23 21 -31 22 -266 22 l-242 0 -24 -25z"/>
</g>
</svg>
